<svg width="25" height="25" fill="none" xmlns="http://www.w3.org/2000/svg"><circle cx="12.5" cy="12.5" r="12.5" fill="#fff"/><path d="M18.47 10.384a8.31 8.31 0 00-.011-.391A6.086 6.086 0 0020 8.42c-.558.24-1.152.4-1.772.477a3.02 3.02 0 001.353-1.673 6.212 6.212 0 01-1.95.733A3.103 3.103 0 0015.385 7c-1.703 0-3.073 1.36-3.073 3.028 0 .24.02.471.071.69a8.752 8.752 0 01-6.339-3.167 3.018 3.018 0 00-.42 1.53 3.02 3.02 0 001.365 2.517 3.077 3.077 0 01-1.389-.373v.034c0 1.47 1.066 2.693 2.464 2.975a3.299 3.299 0 01-1.388.048 3.1 3.1 0 002.873 2.11 6.243 6.243 0 01-3.813 1.29c-.252 0-.494-.01-.736-.04A8.759 8.759 0 009.717 19c5.66 0 8.753-4.615 8.753-8.616z" fill="#5F5F5F"/></svg>