<svg width="25" height="25" fill="none" xmlns="http://www.w3.org/2000/svg"><circle cx="12.5" cy="12.5" r="12.5" fill="#fff"/><path d="M16.447 13.16c-.243-.314-.173-.454 0-.736.003-.003 2.005-2.848 2.211-3.813h.001c.103-.353 0-.611-.495-.611h-1.64c-.418 0-.61.222-.713.47 0 0-.835 2.056-2.017 3.388-.38.385-.557.509-.765.509-.103 0-.262-.124-.262-.475V8.61c0-.422-.117-.61-.463-.61H9.726c-.262 0-.418.197-.418.38 0 .4.59.492.652 1.617v2.44c0 .536-.094.634-.304.634-.557 0-1.91-2.064-2.712-4.427-.162-.458-.32-.643-.74-.643H4.562C4.093 8 4 8.222 4 8.47c0 .438.558 2.618 2.593 5.498C7.949 15.935 9.858 17 11.596 17c1.045 0 1.172-.237 1.172-.643 0-1.879-.094-2.056.429-2.056.242 0 .66.123 1.635 1.071C15.946 16.497 16.129 17 16.753 17h1.64c.468 0 .704-.237.568-.703-.312-.982-2.42-3.001-2.514-3.136z" fill="#5F5F5F"/></svg>