<svg width="25" height="25" viewBox="0 0 25 25" fill="none" xmlns="http://www.w3.org/2000/svg">
<circle cx="12.5" cy="12.5" r="12.5" fill="white"/>
<path d="M18.47 10.384C18.47 10.2505 18.465 10.1206 18.4587 9.99262C19.0688 9.56615 19.5819 9.03385 20 8.42092V8.42031C19.4419 8.66092 18.8481 8.82092 18.2281 8.89846C18.8656 8.52369 19.3525 7.93477 19.5813 7.22523C18.9869 7.57415 18.3306 7.82031 17.6312 7.95815C17.0669 7.36615 16.2625 7 15.385 7C13.6825 7 12.3119 8.36062 12.3119 10.0283C12.3119 10.2683 12.3325 10.4991 12.3831 10.7188C9.82687 10.5957 7.56437 9.38954 6.04437 7.55138C5.77938 8.00492 5.62312 8.52369 5.62312 9.08185C5.62312 10.1305 6.17125 11.0597 6.98938 11.5982C6.495 11.5889 6.01063 11.4474 5.6 11.2252V11.2585C5.6 12.7298 6.66562 13.952 8.06375 14.2338C7.59375 14.3606 7.015 14.3557 6.67562 14.2818C7.07375 15.4806 8.205 16.3625 9.54875 16.3914C8.5025 17.1969 7.17375 17.6825 5.73563 17.6825C5.48375 17.6825 5.24187 17.6714 5 17.6412C6.3625 18.5058 7.97625 19 9.7175 19C15.3763 19 18.47 14.3846 18.47 10.384Z" fill="#5F5F5F"/>
</svg>
