<svg width="25" height="25" viewBox="0 0 25 25" fill="none" xmlns="http://www.w3.org/2000/svg">
<circle cx="12.5" cy="12.5" r="12.5" fill="white"/>
<path d="M16.4469 13.1609C16.2044 12.8459 16.2738 12.7057 16.4469 12.4241C16.45 12.4209 18.4519 9.57564 18.6581 8.61071L18.6594 8.61007C18.7619 8.25843 18.6594 8 18.1638 8H16.5238C16.1062 8 15.9137 8.22179 15.8106 8.46993C15.8106 8.46993 14.9756 10.5258 13.7944 11.8584C13.4131 12.2435 13.2369 12.3669 13.0288 12.3669C12.9263 12.3669 12.7669 12.2435 12.7669 11.8919V8.61007C12.7669 8.18836 12.65 8 12.3044 8H9.72563C9.46375 8 9.30813 8.19671 9.30813 8.37993C9.30813 8.77979 9.89875 8.87171 9.96 9.99671V12.4376C9.96 12.9725 9.86562 13.0709 9.65625 13.0709C9.09875 13.0709 7.74563 11.0066 6.94375 8.64414C6.78188 8.18579 6.62375 8.00064 6.20312 8.00064H4.5625C4.09437 8.00064 4 8.22243 4 8.47057C4 8.909 4.5575 11.0889 6.5925 13.9689C7.94875 15.9348 9.85875 17 11.5963 17C12.6406 17 12.7681 16.7634 12.7681 16.3565C12.7681 14.4781 12.6737 14.3006 13.1969 14.3006C13.4394 14.3006 13.8569 14.4241 14.8319 15.3723C15.9462 16.4966 16.1294 17 16.7531 17H18.3931C18.8606 17 19.0975 16.7634 18.9613 16.2967C18.6494 15.3151 16.5419 13.2959 16.4469 13.1609Z" fill="#5F5F5F"/>
</svg>
