<svg width="25" height="25" viewBox="0 0 25 25" fill="none" xmlns="http://www.w3.org/2000/svg">
<circle cx="12.5" cy="12.5" r="12.5" fill="white"/>
<path d="M5.33568 16.3029C5.64172 17.4279 6.57794 17.6338 6.6404 17.6733C8.18121 18.1083 16.8177 18.1096 18.3817 17.6733C19.4528 17.3522 19.6495 16.3676 19.6864 16.3029C20.0942 14.054 20.1211 11.1223 19.6676 8.57053L19.6864 8.6974C19.3803 7.57235 18.4441 7.3665 18.3817 7.32701C16.8615 6.89913 8.20245 6.88294 6.6404 7.32701C5.56927 7.64873 5.37253 8.63267 5.33568 8.6974C4.8991 11.0608 4.87724 13.7725 5.33568 16.3029ZM11.0105 14.8639V10.1429L14.924 12.5069L11.0105 14.8639Z" fill="#5F5F5F"/>
</svg>
